<?xml version="1.0" standalone="no"?>
<!DOCTYPE svg PUBLIC "-//W3C//DTD SVG 20010904//EN"
 "http://www.w3.org/TR/2001/REC-SVG-20010904/DTD/svg10.dtd">
<svg version="1.0" xmlns="http://www.w3.org/2000/svg"
 width="600.000000pt" height="600.000000pt" viewBox="0 0 600.000000 600.000000"
 preserveAspectRatio="xMidYMid meet">
<metadata>
Created by potrace 1.14, written by Peter Selinger 2001-2017
</metadata>
<g transform="translate(0.000000,600.000000) scale(0.100000,-0.100000)"
fill="#000000" stroke="none">
<path d="M4419 5246 c-2 -2 -22 -7 -44 -10 -82 -13 -98 -17 -119 -28 -11 -6
-22 -11 -23 -10 -9 6 -33 1 -29 -6 3 -5 -8 -6 -25 -4 -16 2 -29 0 -29 -6 0 -6
-9 -9 -20 -7 -11 2 -20 -1 -20 -6 0 -6 -4 -8 -9 -4 -5 3 -12 1 -16 -5 -4 -6
-11 -8 -16 -5 -5 4 -9 2 -9 -2 0 -5 -10 -10 -22 -10 -13 -1 -24 -7 -26 -12 -2
-5 -10 -7 -19 -4 -9 4 -14 2 -11 -3 3 -5 -10 -10 -30 -11 -19 -1 -38 -7 -42
-13 -4 -6 -11 -10 -16 -9 -21 4 -26 -2 -13 -18 11 -15 10 -14 -9 1 -12 11 -22
15 -22 10 0 -9 -34 -26 -77 -39 -13 -3 -23 -13 -23 -21 0 -8 -5 -12 -10 -9 -6
4 -17 1 -25 -5 -8 -7 -15 -9 -15 -6 0 4 -6 2 -12 -4 -7 -6 -22 -18 -33 -26
-11 -9 -14 -13 -7 -9 17 9 15 0 -5 -16 -11 -10 -14 -10 -9 -1 4 7 1 12 -8 12
-9 0 -16 -4 -16 -8 0 -5 -16 -16 -35 -25 -19 -9 -35 -21 -35 -26 0 -5 -8 -12
-18 -15 -10 -4 -36 -24 -59 -45 -23 -22 -44 -37 -49 -33 -4 4 -4 -1 -1 -10 4
-12 1 -18 -9 -18 -10 0 -14 -6 -11 -14 4 -11 1 -13 -10 -9 -10 4 -14 2 -10 -4
4 -6 0 -14 -9 -17 -9 -4 -14 -13 -10 -22 3 -8 2 -12 -3 -9 -5 3 -16 -4 -24
-16 -15 -21 -32 -22 -107 -5 -44 11 -132 18 -250 20 -126 3 -153 0 -143 -18 5
-8 3 -8 -8 0 -16 13 -49 15 -49 3 0 -4 -12 -7 -27 -5 -16 1 -33 -2 -40 -6 -8
-6 -15 -2 -23 11 -6 12 -15 21 -21 21 -6 0 -25 10 -42 22 -18 13 -28 16 -23 7
4 -7 1 -6 -7 4 -8 9 -19 17 -26 17 -6 0 -11 5 -11 11 0 5 -4 8 -9 4 -5 -3 -13
-1 -16 5 -5 8 -11 7 -21 -1 -12 -10 -13 -9 -8 5 5 12 2 15 -10 10 -11 -4 -16
-1 -16 11 0 14 -3 15 -14 6 -10 -9 -16 -8 -26 4 -11 13 -15 13 -22 3 -6 -10
-10 -10 -15 -2 -5 7 -24 13 -43 15 -19 2 -41 7 -47 12 -7 5 -26 7 -42 5 -17
-2 -30 -2 -29 1 2 18 -4 21 -22 11 -12 -7 -20 -7 -20 -1 0 5 -8 10 -17 9 -10
0 -31 3 -46 6 -21 5 -27 3 -22 -6 4 -7 0 -6 -7 4 -11 12 -18 14 -32 6 -11 -6
-16 -6 -13 -1 4 6 -9 10 -30 11 -19 1 -44 4 -54 7 -11 4 -22 -1 -29 -12 -11
-16 -11 -17 -6 0 6 20 -4 22 -23 5 -11 -10 -13 -10 -7 0 5 7 1 12 -11 13 -10
0 -49 2 -86 4 -42 3 -66 1 -62 -5 3 -6 1 -10 -4 -10 -6 0 -11 4 -11 9 0 10
-170 9 -187 -2 -7 -5 -13 -4 -13 1 0 12 -32 11 -49 -2 -11 -8 -13 -8 -7 2 4 6
4 12 -1 13 -44 4 -63 4 -63 -2 0 -4 -13 -4 -30 1 -23 7 -32 5 -40 -8 -9 -16
-9 -16 -10 0 0 19 -28 14 -42 -6 -5 -7 -8 -7 -8 2 0 6 -7 12 -16 12 -8 0 -12
-4 -9 -10 4 -7 -2 -7 -19 0 -14 5 -28 6 -30 1 -3 -4 -19 -6 -36 -3 -26 4 -29
2 -24 -14 5 -18 5 -18 -6 -1 -9 13 -19 16 -43 12 -18 -3 -43 -7 -57 -7 -14 -1
-31 -6 -37 -11 -9 -6 -13 -6 -13 1 0 8 -8 8 -22 3 -13 -5 -22 -15 -20 -22 2
-10 0 -10 -12 1 -13 10 -19 10 -33 -1 -14 -12 -16 -12 -8 0 6 11 5 12 -6 5
-14 -9 -19 -10 -40 -13 -5 0 -7 -7 -3 -13 6 -10 4 -10 -8 0 -11 9 -18 10 -23
2 -3 -6 -10 -8 -15 -5 -4 3 -11 -2 -14 -11 -3 -8 -10 -12 -16 -9 -5 3 -10 2
-10 -4 0 -6 -6 -8 -13 -5 -16 6 -60 -43 -51 -58 4 -6 3 -8 -3 -5 -6 4 -10 -9
-10 -33 0 -26 4 -37 11 -33 6 4 6 0 -1 -8 -8 -9 -10 -29 -7 -50 3 -19 7 -49 7
-66 1 -18 4 -33 7 -33 3 0 7 -12 8 -26 1 -15 8 -34 15 -42 8 -10 8 -13 0 -9
-7 5 -9 0 -6 -13 3 -11 8 -18 12 -16 3 2 5 -13 5 -35 -1 -21 4 -43 11 -49 7
-6 11 -19 8 -30 -3 -11 2 -26 11 -35 8 -9 12 -23 9 -32 -4 -11 -3 -14 5 -9 8
5 12 0 12 -13 0 -30 11 -52 23 -44 6 3 7 1 3 -6 -11 -16 14 -113 33 -128 8 -7
11 -13 5 -13 -5 0 -2 -5 6 -10 11 -7 11 -10 2 -10 -7 0 -2 -11 13 -26 14 -14
23 -30 20 -35 -4 -5 3 -22 14 -38 11 -15 18 -31 14 -35 -3 -3 -1 -6 5 -6 7 0
12 -6 12 -14 0 -8 6 -21 13 -28 7 -7 15 -17 16 -23 9 -27 14 -34 21 -30 5 3
12 0 16 -6 4 -8 3 -9 -4 -5 -19 12 -14 -8 8 -32 11 -12 20 -26 20 -32 0 -6 6
-8 13 -4 6 4 9 4 5 -1 -4 -4 0 -21 8 -37 14 -27 14 -31 -5 -46 -51 -44 -62
-52 -66 -52 -2 0 -23 -13 -47 -29 -24 -16 -54 -32 -68 -36 -14 -4 -31 -13 -39
-19 -11 -8 -13 -8 -8 1 11 18 -44 11 -66 -8 -17 -16 -17 -18 0 -61 17 -42 31
-66 74 -121 16 -20 15 -23 -17 -62 -27 -33 -52 -78 -59 -105 0 -3 -6 -15 -13
-27 -6 -12 -9 -29 -5 -39 4 -12 3 -15 -5 -10 -8 4 -12 0 -13 -11 0 -10 -3 -27
-5 -38 -4 -17 -5 -171 -1 -242 0 -13 5 -23 10 -23 5 0 4 -7 -3 -15 -10 -12
-10 -15 1 -15 11 0 11 -2 0 -9 -12 -8 -9 -11 12 -16 15 -4 27 -11 27 -16 0 -5
22 0 49 10 l50 19 7 -32 c3 -17 9 -35 13 -41 11 -15 11 -105 1 -105 -12 0 -9
-20 5 -35 6 -6 21 -15 35 -19 39 -12 228 -17 235 -6 6 10 44 -6 57 -25 5 -7 8
-7 9 0 0 6 4 2 8 -8 4 -10 10 -18 14 -18 3 0 19 -11 34 -25 15 -14 33 -22 42
-19 8 3 12 3 9 -1 -9 -8 67 -64 95 -70 11 -2 23 -7 26 -12 3 -4 13 -7 21 -7 8
0 26 -5 39 -12 18 -8 30 -9 44 -1 14 7 17 7 13 -1 -6 -10 13 -16 37 -12 4 0 7
-3 7 -8 0 -5 13 -8 28 -7 16 1 34 -4 41 -11 7 -8 8 -13 2 -13 -12 0 -12 -49
-1 -65 4 -5 7 -17 8 -25 0 -8 5 -29 10 -47 8 -25 7 -31 -3 -27 -10 4 -22 -17
-29 -56 -1 -3 -5 -11 -9 -17 -5 -8 -3 -13 4 -13 10 0 10 -3 2 -11 -9 -9 -7
-16 6 -28 9 -9 11 -12 4 -7 -9 6 -13 3 -13 -7 0 -9 5 -19 10 -22 6 -4 8 -10 5
-15 -3 -4 2 -13 10 -20 8 -7 15 -20 15 -29 0 -13 2 -13 9 -2 7 11 10 10 15 -6
4 -11 16 -29 28 -39 12 -11 18 -14 15 -7 -4 6 -2 15 4 19 8 4 9 3 5 -4 -7 -11
25 -46 44 -48 6 -1 14 -2 19 -3 5 0 5 -17 1 -39 -5 -20 -11 -74 -14 -120 -3
-45 -7 -86 -10 -91 -10 -16 -14 -121 -5 -127 5 -3 9 -11 9 -17 0 -8 -3 -8 -9
1 -7 11 -9 11 -14 -2 -4 -9 -3 -16 1 -16 4 0 8 -9 8 -20 0 -11 -3 -20 -6 -20
-3 0 -6 -19 -7 -42 -2 -73 -8 -108 -17 -108 -4 0 -6 -9 -3 -20 3 -11 1 -20 -5
-20 -6 0 -8 -7 -4 -15 3 -8 0 -15 -7 -15 -8 0 -8 -3 2 -9 9 -6 10 -10 2 -12
-6 -2 -13 -20 -15 -39 -1 -20 -8 -45 -15 -58 -6 -12 -9 -22 -5 -22 3 0 1 -7
-6 -15 -7 -8 -9 -15 -5 -15 4 0 3 -6 -4 -13 -8 -10 -7 -17 2 -27 9 -10 9 -11
0 -6 -13 7 -15 0 -16 -51 -1 -12 -5 -20 -9 -17 -8 5 -10 -4 -11 -43 0 -13 -4
-23 -10 -23 -5 0 -3 -8 4 -17 8 -9 9 -14 3 -10 -7 4 -15 0 -18 -9 -9 -22 -8
-26 5 -18 6 3 3 -8 -5 -25 -9 -17 -14 -31 -12 -31 3 0 -1 -15 -9 -34 -14 -32
-22 -69 -30 -130 -3 -15 -10 -34 -16 -42 -6 -8 -9 -14 -6 -14 2 0 -2 -28 -9
-62 -8 -35 -16 -76 -19 -92 -2 -15 -6 -35 -9 -45 -3 -9 -8 -36 -11 -61 -3 -25
-9 -53 -12 -64 -3 -12 -1 -16 6 -12 7 5 9 1 5 -8 -6 -14 140 -16 1469 -16
l1474 0 -3 23 c-20 134 -27 174 -35 189 -5 10 -8 18 -5 18 2 0 -4 30 -15 67
-10 38 -19 68 -19 69 0 0 7 1 15 1 8 0 12 -4 9 -9 -3 -4 0 -9 5 -9 14 -2 21
-4 46 -13 38 -15 45 -15 45 -3 0 9 2 9 8 0 15 -24 214 5 242 37 3 3 17 11 32
19 56 29 168 167 168 207 0 8 5 14 11 14 6 0 9 6 6 14 -3 8 -2 16 3 18 17 6
29 195 17 258 -7 35 -42 120 -50 120 -4 0 -5 5 -2 10 3 6 1 10 -5 10 -6 0 -8
5 -4 11 3 6 2 14 -3 18 -6 3 -25 28 -42 55 -17 28 -31 47 -31 44 0 -4 -13 7
-30 24 -16 16 -30 34 -30 40 0 6 -3 9 -6 5 -3 -3 -15 2 -25 12 -24 22 -101 61
-121 61 -9 0 -32 7 -52 15 -25 11 -36 12 -36 4 0 -8 -4 -8 -12 -2 -14 11 -106
8 -148 -3 -14 -4 -28 -8 -32 -9 -5 -2 -13 -3 -19 -4 -5 0 -8 -5 -5 -9 2 -4 -4
-9 -15 -9 -34 -3 -134 -93 -180 -163 l-17 -25 5 27 c3 17 -1 33 -11 43 -9 9
-14 21 -11 26 4 5 1 9 -4 9 -6 0 -10 3 -9 8 4 16 -15 58 -36 75 -20 16 -20 17
-1 10 19 -6 19 -5 4 13 -9 10 -14 25 -11 33 2 8 0 11 -6 7 -5 -3 -10 0 -9 7 1
34 -4 49 -16 44 -13 -5 -16 14 -20 135 -2 64 1 80 15 93 10 8 18 11 18 7 0 -4
4 -1 9 6 4 7 14 15 22 16 8 2 22 6 31 10 9 4 23 9 31 10 57 8 111 65 91 97 -4
8 -3 9 4 5 7 -4 12 -3 12 3 0 5 -5 13 -11 16 -6 4 -7 14 -4 24 13 31 14 51 3
57 -7 5 -8 2 -3 -6 5 -9 4 -11 -4 -6 -9 6 -9 11 -1 21 8 9 7 17 -4 28 -8 8
-12 18 -9 21 4 4 -3 14 -16 22 -22 16 -22 17 -4 38 31 36 41 61 38 94 -1 18 1
32 6 32 5 0 7 14 5 30 -2 17 1 30 6 30 5 0 6 4 3 10 -4 6 1 7 10 3 10 -3 21 0
26 8 7 12 9 12 9 -1 0 -12 2 -12 9 -2 4 7 21 15 37 17 15 1 30 7 32 13 2 6 9
9 17 6 7 -3 16 -1 20 5 3 6 15 11 25 11 10 0 26 7 34 16 12 12 16 12 16 2 0
-10 2 -10 9 1 5 7 13 11 19 7 5 -3 12 1 16 9 3 8 12 12 20 9 8 -3 23 3 34 14
11 11 23 18 26 15 3 -4 6 -1 6 5 0 7 3 11 8 11 18 -3 33 2 28 9 -2 4 11 18 29
31 30 20 39 22 66 12 47 -16 222 -14 264 3 18 8 36 12 39 8 3 -3 6 0 6 6 0 7
8 12 18 12 11 0 13 3 5 8 -6 4 -13 16 -15 27 -1 11 -7 23 -13 27 -6 5 -5 8 2
8 7 0 10 6 7 13 -6 17 24 110 39 119 6 4 14 2 18 -4 4 -6 25 -12 48 -14 52 -3
62 14 64 102 1 35 6 64 11 64 5 0 3 7 -4 15 -7 8 -9 15 -4 15 5 0 10 18 10 40
1 22 -2 40 -5 40 -3 0 -7 20 -7 45 -1 25 -7 51 -13 58 -6 8 -8 17 -5 20 4 4
-1 18 -10 31 -9 14 -16 32 -16 41 0 9 -4 13 -10 10 -5 -3 -7 0 -5 7 5 13 -4
28 -51 86 l-21 25 31 45 c51 73 67 104 62 118 -3 7 0 15 7 17 24 9 -18 35 -63
40 -57 7 -75 14 -127 49 -23 15 -46 28 -52 28 -6 0 -11 3 -11 8 0 4 -14 16
-30 27 -16 11 -30 23 -30 27 0 5 -10 19 -22 33 -12 14 -23 35 -24 48 -3 37 -6
102 -4 107 10 29 7 41 -8 36 -14 -5 -14 -4 1 8 12 9 15 16 7 21 -7 4 -8 11 -2
18 11 14 10 46 -2 65 -4 6 -3 12 2 12 11 0 10 51 -2 69 -6 10 -6 12 2 7 7 -4
12 -1 12 8 0 9 -5 16 -11 16 -8 0 -7 6 2 17 9 10 10 18 4 20 -11 3 -12 105 -1
148 3 13 2 26 -3 29 -10 7 -9 25 2 44 5 6 4 12 -2 12 -10 0 -10 18 2 37 4 6 3
14 -3 18 -10 6 -7 45 5 65 3 5 1 10 -6 10 -10 0 -10 3 -2 11 7 7 8 21 3 40 -5
16 -6 29 -2 29 4 0 7 11 7 25 0 14 -3 25 -7 25 -6 0 -6 8 2 45 1 6 1 15 0 20
-2 6 -4 26 -5 45 -6 90 -10 130 -16 130 -3 0 -5 14 -4 30 1 25 -1 30 -14 25
-13 -5 -14 -4 -3 6 6 7 12 17 12 22 0 4 -6 5 -12 1 -9 -5 -9 -2 1 9 7 10 9 17
3 17 -6 0 -9 11 -7 25 1 14 -2 25 -7 25 -6 0 -8 7 -4 15 3 8 1 15 -5 15 -6 0
-8 4 -5 9 3 4 -1 17 -9 27 -8 10 -15 27 -15 37 0 9 -5 17 -11 17 -5 0 -8 4 -4
9 3 5 0 15 -7 23 -7 7 -14 20 -16 28 -2 8 -9 18 -15 22 -7 4 -7 8 -2 8 6 0 -2
8 -18 18 -15 10 -24 22 -20 27 5 4 0 5 -9 2 -12 -4 -15 -2 -12 8 12 29 -170
50 -204 23 -12 -10 -14 -10 -8 0 7 11 4 17 -5 8z m-2714 -3414 c-3 -3 -11 0
-18 7 -9 10 -8 11 6 5 10 -3 15 -9 12 -12z"/>
</g>
</svg>
